<svg width="1024" height="1024" viewBox="0 0 1024 1024" fill="none" xmlns="http://www.w3.org/2000/svg">
<rect width="1024" height="1024" rx="180" fill="#010101"/>
<g clip-path="url(#clip0_7191_2474)">
<path fill-rule="evenodd" clip-rule="evenodd" d="M845.38 580.956C836.339 573.758 825.243 569.522 813.641 568.837C807.206 568.837 803.887 571.345 803.887 575.335C803.887 579.099 807.827 581.395 819.449 585.992C835.632 592.491 850.77 600.202 850.77 619.025C850.77 640.756 834.588 659.557 802.222 659.557C781.952 659.84 762.268 652.861 746.827 639.916L766.329 616.723C776.584 625.969 789.81 631.368 803.695 631.978C810.333 631.978 813.657 629.27 813.657 625.084C813.657 621.115 809.3 618.819 798.304 614.427C781.27 607.637 768.016 600.061 766.878 583.713H764.471C742.893 583.713 728.996 595.832 721.94 622.783L712.813 656.801H673.392L703.477 543.765H742.876L736.859 566.541C747.651 550.453 760.718 540.635 778.978 541.886L774.643 558.05C782.742 547.81 796.815 541.263 815.696 541.263C833.219 541.093 850.301 546.68 864.244 557.141L845.38 580.956ZM617.794 659.519C583.56 659.519 562.816 636.743 562.816 606.868C562.918 589.601 569.882 573.06 582.216 560.795C594.549 548.529 611.269 541.516 628.789 541.258C663.226 541.258 683.975 564.034 683.975 593.704C683.91 611.037 676.936 627.65 664.556 639.962C652.175 652.274 635.381 659.298 617.794 659.519ZM626.712 574.269C611.15 574.269 600.572 590.774 600.572 605.4C600.572 618.353 608.458 626.519 620.074 626.519C635.636 626.519 646.214 610.014 646.214 595.177C646.214 582.419 638.334 574.269 626.712 574.269ZM569.015 575.731H542.897L533.352 611.249C532.776 613.507 532.428 615.816 532.314 618.142C532.314 622.74 535.012 625.247 541.232 625.247C546.36 625.071 551.417 624.01 556.173 622.111L547.458 655.144C539.997 657.747 532.14 659.077 524.225 659.075C501.404 659.075 490.2 649.046 490.2 632.33C490.233 627.318 490.931 622.331 492.277 617.498L503.481 575.709H490.2L498.706 543.76H511.982L519.675 515.135H559.091L551.398 543.76H577.537L569.015 575.731ZM421.969 659.519C387.735 659.519 366.991 636.743 366.991 606.868C367.093 589.602 374.056 573.062 386.389 560.797C398.721 548.531 415.439 541.517 432.959 541.258C467.396 541.258 488.145 564.034 488.145 593.704C488.08 611.036 481.106 627.648 468.727 639.96C456.348 652.272 439.555 659.296 421.969 659.519ZM430.887 574.269C415.325 574.269 404.747 590.774 404.747 605.4C404.747 618.353 412.633 626.519 424.249 626.519C439.811 626.519 450.389 610.014 450.389 595.177C450.372 582.419 442.487 574.269 430.865 574.269H430.887Z" fill="white"/>
<path fill-rule="evenodd" clip-rule="evenodd" d="M365.313 595.372L348.927 656.802H309.715L325.26 597.674C326.117 594.674 326.604 591.583 326.711 588.468C326.937 586.856 326.782 585.214 326.259 583.671C325.735 582.128 324.856 580.725 323.691 579.571C322.526 578.418 321.106 577.546 319.543 577.022C317.979 576.499 316.314 576.339 314.677 576.555C304.094 576.555 297.643 584.076 294.137 597.029L278.179 656.802H238.758L254.523 597.674C255.38 594.674 255.867 591.583 255.974 588.468C256.182 586.859 256.015 585.225 255.484 583.69C254.954 582.155 254.075 580.76 252.914 579.611C251.753 578.461 250.341 577.589 248.786 577.059C247.231 576.529 245.573 576.357 243.94 576.555C243.205 576.559 242.472 576.602 241.742 576.685H189.331L198.123 543.755H237.544L234.247 556.291C238.135 551.793 242.924 548.135 248.313 545.546C253.703 542.958 259.578 541.494 265.568 541.248C271.959 540.868 278.297 542.592 283.585 546.15C288.873 549.707 292.811 554.896 294.78 560.9C299.655 554.859 305.834 549.963 312.867 546.566C319.899 543.169 327.611 541.356 335.443 541.259C356.813 541.259 368.638 554.212 368.638 574.898C368.363 581.829 367.247 588.703 365.313 595.372ZM223.817 595.648C223.68 596.109 223.537 596.564 223.405 597.046L207.431 656.802H168.016L184.286 595.648H223.817Z" fill="#6B98E1"/>
</g>
<path d="M610.098 373.2C583.249 358.007 547.838 346.726 515.564 343.082C503.422 341.711 464.024 341.648 448.671 342.974C392.542 347.823 326.523 364.42 250.261 392.853C207.923 408.638 188.735 414.385 171.022 416.586C162.37 417.661 157.438 417.52 149.356 415.971C146.67 415.457 146.699 415.542 149.923 417.593C161.377 424.882 165.339 437.262 163.284 459.353L162.319 469.736L168.968 462.48C179.796 450.662 197.55 443.309 217.116 442.536C221.003 442.382 224.179 441.981 224.172 441.644C224.165 441.309 220.287 439.581 215.551 437.807C210.816 436.031 207.379 434.167 207.911 433.664C210.901 430.837 246.577 421.972 269.176 418.439C289.322 415.29 319.853 412.257 345.265 410.882C369.921 409.546 454.593 410.133 461.71 411.689C463.581 412.097 464.735 412.028 464.274 411.535C463.068 410.241 397.883 404.468 349.466 401.368C317.46 399.318 311.205 397.85 315.001 393.277C317.522 390.238 326.324 386.439 343.239 381.087C405.564 361.368 458.769 353.19 504.036 356.372C562.494 360.482 604.258 372.56 641.129 396.02C642.533 396.914 643.68 397.364 643.68 397.02C643.68 395.548 620.36 379.006 610.098 373.2Z" fill="white"/>
<path d="M610.098 373.2C583.249 358.007 547.838 346.726 515.564 343.082C503.422 341.711 464.024 341.648 448.671 342.974C392.542 347.823 326.523 364.42 250.261 392.853C207.923 408.638 188.735 414.385 171.022 416.586C162.37 417.661 157.438 417.52 149.356 415.971C146.67 415.457 146.699 415.542 149.923 417.593C161.377 424.882 165.339 437.262 163.284 459.353L162.319 469.736L168.968 462.48C179.796 450.662 197.55 443.309 217.116 442.536C221.003 442.382 224.179 441.981 224.172 441.644C224.165 441.309 220.287 439.581 215.551 437.807C210.816 436.031 207.379 434.167 207.911 433.664C210.901 430.837 246.577 421.972 269.176 418.439C289.322 415.29 319.853 412.257 345.265 410.882C369.921 409.546 454.593 410.133 461.71 411.689C463.581 412.097 464.735 412.028 464.274 411.535C463.068 410.241 397.883 404.468 349.466 401.368C317.46 399.318 311.205 397.85 315.001 393.277C317.522 390.238 326.324 386.439 343.239 381.087C405.564 361.368 458.769 353.19 504.036 356.372C562.494 360.482 604.258 372.56 641.129 396.02C642.533 396.914 643.68 397.364 643.68 397.02C643.68 395.548 620.36 379.006 610.098 373.2Z" fill="#6B98E1"/>
<path d="M573.386 376.679C573.386 374.895 539.772 368.458 516.131 365.716C500.233 363.872 455.907 365.085 437.901 367.859C422.778 370.186 402.174 374.343 401.27 375.246C401.037 375.48 415.051 375.703 432.412 375.743C449.772 375.784 488.594 376.154 518.682 376.568C548.77 376.982 573.386 377.032 573.386 376.679Z" fill="white"/>
<path d="M573.386 376.679C573.386 374.895 539.772 368.458 516.131 365.716C500.233 363.872 455.907 365.085 437.901 367.859C422.778 370.186 402.174 374.343 401.27 375.246C401.037 375.48 415.051 375.703 432.412 375.743C449.772 375.784 488.594 376.154 518.682 376.568C548.77 376.982 573.386 377.032 573.386 376.679Z" fill="#6B98E1"/>
<path d="M850.897 425.919C830.528 413.873 801.366 406.301 763.253 403.165C746.65 401.799 683.91 401.755 658.419 403.093C627.772 404.699 548.998 410.865 549.844 411.589C550.009 411.731 575.654 412.181 606.833 412.59C769.279 414.721 816.062 419.463 850.291 437.271C860.597 442.633 872.76 453.447 879.003 462.798C881.42 466.417 883.829 469.888 884.358 470.511C886.237 472.723 880.806 458.134 876.686 451.101C869.57 438.956 859.005 430.714 850.897 425.919Z" fill="white"/>
<path d="M850.897 425.919C830.528 413.873 801.366 406.301 763.253 403.165C746.65 401.799 683.91 401.755 658.419 403.093C627.772 404.699 548.998 410.865 549.844 411.589C550.009 411.731 575.654 412.181 606.833 412.59C769.279 414.721 816.062 419.463 850.291 437.271C860.597 442.633 872.76 453.447 879.003 462.798C881.42 466.417 883.829 469.888 884.358 470.511C886.237 472.723 880.806 458.134 876.686 451.101C869.57 438.956 859.005 430.714 850.897 425.919Z" fill="#6B98E1"/>
<path d="M700.936 452.498C687.217 451.944 645.126 451.119 607.399 450.665C569.673 450.211 516.613 450.034 489.487 450.271C422.363 450.86 350.973 451.989 351.44 452.455C352.117 453.132 372.603 453.888 397.652 454.162C412.006 454.319 419.697 454.741 416.359 455.188C400.553 457.307 594.393 456.685 692.999 454.3L725.879 453.505L700.936 452.498Z" fill="white"/>
<path d="M700.936 452.498C687.217 451.944 645.126 451.119 607.399 450.665C569.673 450.211 516.613 450.034 489.487 450.271C422.363 450.86 350.973 451.989 351.44 452.455C352.117 453.132 372.603 453.888 397.652 454.162C412.006 454.319 419.697 454.741 416.359 455.188C400.553 457.307 594.393 456.685 692.999 454.3L725.879 453.505L700.936 452.498Z" fill="#6B98E1"/>
<path d="M176.906 557.175L180.226 544.769L88.0664 551.858L176.906 557.175Z" fill="#D9D9D9"/>
<path d="M176.906 557.175L180.226 544.769L88.0664 551.858L176.906 557.175Z" fill="url(#paint0_linear_7191_2474)"/>
<path d="M176.906 557.175L180.226 544.769L88.0664 551.858L176.906 557.175Z" fill="white"/>
<path d="M176.906 557.175L180.226 544.769L88.0664 551.858L176.906 557.175Z" fill="#6B98E1"/>
<path d="M169.225 579.329L171.806 569.581L99.1416 576.227L169.225 579.329Z" fill="#D9D9D9"/>
<path d="M169.225 579.329L171.806 569.581L99.1416 576.227L169.225 579.329Z" fill="url(#paint1_linear_7191_2474)"/>
<path d="M169.225 579.329L171.806 569.581L99.1416 576.227L169.225 579.329Z" fill="white"/>
<path d="M169.225 579.329L171.806 569.581L99.1416 576.227L169.225 579.329Z" fill="#6B98E1"/>
<defs>
<linearGradient id="paint0_linear_7191_2474" x1="133.26" y1="544.769" x2="133.26" y2="557.175" gradientUnits="userSpaceOnUse">
<stop stop-color="#FF3737"/>
<stop offset="1" stop-color="#D80D0D"/>
</linearGradient>
<linearGradient id="paint1_linear_7191_2474" x1="134.775" y1="569.581" x2="134.775" y2="579.329" gradientUnits="userSpaceOnUse">
<stop stop-color="#FF3737"/>
<stop offset="1" stop-color="#D80D0D"/>
</linearGradient>
<clipPath id="clip0_7191_2474">
<rect width="696.32" height="144.519" fill="white" transform="translate(167.934 515.067)"/>
</clipPath>
</defs>
</svg>
