<svg width="128" height="128" viewBox="0 0 128 128" fill="none" xmlns="http://www.w3.org/2000/svg">
<rect width="128" height="128" rx="16" fill="#010101"/>
<g clip-path="url(#clip0_5587_66292)">
<path fill-rule="evenodd" clip-rule="evenodd" d="M111.443 73.9079C110.167 72.8924 108.602 72.2948 106.965 72.1982C106.058 72.1982 105.589 72.5519 105.589 73.1149C105.589 73.6458 106.145 73.9697 107.785 74.6183C110.068 75.535 112.203 76.6228 112.203 79.2782C112.203 82.3438 109.92 84.9961 105.354 84.9961C102.495 85.036 99.718 84.0514 97.5398 82.2254L100.291 78.9535C101.738 80.2578 103.603 81.0195 105.562 81.1055C106.499 81.1055 106.968 80.7235 106.968 80.133C106.968 79.5731 106.353 79.2492 104.802 78.6296C102.399 77.6717 100.529 76.603 100.368 74.2967H100.029C96.9848 74.2967 95.0243 76.0063 94.029 79.8084L92.7414 84.6073H87.1803L91.4244 68.6613H96.9824L96.1336 71.8743C97.6561 69.6047 99.4995 68.2197 102.075 68.3962L101.464 70.6765C102.606 69.2319 104.592 68.3083 107.255 68.3083C109.727 68.2843 112.137 69.0724 114.104 70.5481L111.443 73.9079ZM79.337 84.9908C74.5076 84.9908 71.5812 81.7777 71.5812 77.5632C71.5956 75.1273 72.578 72.794 74.3179 71.0637C76.0578 69.3333 78.4165 68.3439 80.8881 68.3076C85.7462 68.3076 88.6733 71.5206 88.6733 75.7061C88.6641 78.1513 87.6802 80.495 85.9337 82.2318C84.1872 83.9687 81.818 84.9595 79.337 84.9908ZM80.5951 72.9644C78.3998 72.9644 76.9075 75.2928 76.9075 77.3562C76.9075 79.1835 78.0199 80.3355 79.6587 80.3355C81.854 80.3355 83.3462 78.007 83.3462 75.9139C83.3462 74.1141 82.2346 72.9644 80.5951 72.9644ZM72.4557 73.1707H68.7712L67.4247 78.1812C67.3434 78.4998 67.2943 78.8256 67.2782 79.1537C67.2782 79.8023 67.6588 80.1559 68.5363 80.1559C69.2597 80.1311 69.9731 79.9814 70.6441 79.7136L69.4146 84.3735C68.3621 84.7408 67.2537 84.9284 66.1371 84.9281C62.9178 84.9281 61.3372 83.5134 61.3372 81.1552C61.3418 80.4481 61.4404 79.7447 61.6302 79.0628L63.2108 73.1676H61.3372L62.5372 68.6605H64.41L65.4953 64.6224H71.0557L69.9704 68.6605H73.658L72.4557 73.1707ZM51.7118 84.9908C46.8824 84.9908 43.9561 81.7777 43.9561 77.5632C43.9704 75.1274 44.9527 72.7942 46.6925 71.0639C48.4322 69.3336 50.7907 68.3441 53.2621 68.3076C58.1202 68.3076 61.0473 71.5206 61.0473 75.7061C61.0381 78.1512 60.0543 80.4947 58.308 82.2315C56.5617 83.9684 54.1927 84.9593 51.7118 84.9908ZM52.9699 72.9644C50.7746 72.9644 49.2823 75.2928 49.2823 77.3562C49.2823 79.1835 50.3947 80.3355 52.0335 80.3355C54.2288 80.3355 55.721 78.007 55.721 75.9139C55.7187 74.1141 54.6063 72.9644 52.9668 72.9644H52.9699Z" fill="white"/>
<path fill-rule="evenodd" clip-rule="evenodd" d="M43.7197 75.9415L41.4081 84.6074H35.8764L38.0694 76.2661C38.1902 75.8429 38.2589 75.4069 38.274 74.9675C38.3059 74.7401 38.2841 74.5085 38.2102 74.2908C38.1363 74.0731 38.0123 73.8751 37.848 73.7124C37.6836 73.5497 37.4833 73.4267 37.2627 73.3529C37.0422 73.279 36.8073 73.2564 36.5764 73.2869C35.0834 73.2869 34.1733 74.3479 33.6787 76.1752L31.4276 84.6074H25.8664L28.0904 76.2661C28.2112 75.8429 28.2799 75.4069 28.2951 74.9675C28.3244 74.7406 28.3008 74.51 28.226 74.2935C28.1512 74.0769 28.0272 73.8801 27.8634 73.718C27.6996 73.5558 27.5004 73.4327 27.281 73.358C27.0616 73.2833 26.8278 73.259 26.5974 73.2869C26.4938 73.2875 26.3903 73.2936 26.2873 73.3052H18.8937L20.1339 68.6598H25.6951L25.23 70.4283C25.7785 69.7937 26.454 69.2777 27.2144 68.9125C27.9747 68.5473 28.8034 68.3409 29.6485 68.3061C30.5501 68.2525 31.4442 68.4957 32.1902 68.9976C32.9362 69.4994 33.4917 70.2314 33.7694 71.0784C34.4573 70.2263 35.3288 69.5356 36.321 69.0564C37.3131 68.5772 38.401 68.3214 39.5058 68.3076C42.5205 68.3076 44.1886 70.1349 44.1886 73.0531C44.1499 74.0309 43.9925 75.0006 43.7197 75.9415ZM23.7587 75.9804C23.7393 76.0454 23.7192 76.1095 23.7006 76.1775L21.4471 84.6074H15.8867L18.182 75.9804H23.7587Z" fill="#6B98E1"/>
</g>
<path d="M78.248 44.5995C74.4604 42.4562 69.465 40.8648 64.9121 40.3507C63.1992 40.1574 57.6413 40.1484 55.4755 40.3356C47.5572 41.0195 38.244 43.3609 27.4856 47.3719C21.5129 49.5988 18.806 50.4095 16.3073 50.72C15.0867 50.8716 14.391 50.8517 13.2508 50.6333C12.8719 50.5606 12.876 50.5726 13.3307 50.862C14.9466 51.8903 15.5055 53.6368 15.2157 56.7531L15.0796 58.2179L16.0174 57.1942C17.5451 55.5272 20.0496 54.4898 22.8097 54.3807C23.3582 54.3591 23.8061 54.3025 23.8052 54.255C23.8042 54.2077 23.2571 53.9639 22.589 53.7136C21.9211 53.4631 21.4361 53.2002 21.5111 53.1292C21.9331 52.7304 26.9658 51.4798 30.1539 50.9815C32.9959 50.5371 37.303 50.1093 40.8878 49.9153C44.3661 49.7269 56.3109 49.8097 57.3148 50.0292C57.5787 50.0867 57.7415 50.077 57.6766 50.0074C57.5064 49.8249 48.3107 49.0105 41.4805 48.5732C36.9654 48.284 36.083 48.0769 36.6185 47.4317C36.9742 47.0031 38.2158 46.4671 40.602 45.7122C49.3943 42.9303 56.8999 41.7766 63.2858 42.2256C71.5325 42.8054 77.4242 44.5092 82.6256 47.8188C82.8236 47.9448 82.9855 48.0083 82.9855 47.9598C82.9855 47.7521 79.6957 45.4185 78.248 44.5995Z" fill="#6B98E1"/>
<path d="M73.0691 45.0903C73.0691 44.8386 68.3271 43.9306 64.992 43.5437C62.7493 43.2836 56.4962 43.4547 53.956 43.846C51.8227 44.1743 48.9161 44.7607 48.7885 44.8881C48.7557 44.9211 50.7326 44.9526 53.1817 44.9582C55.6308 44.964 61.1074 45.0163 65.3519 45.0746C69.5964 45.133 73.0691 45.1401 73.0691 45.0903Z" fill="#6B98E1"/>
<path d="M112.218 52.0366C109.344 50.3372 105.23 49.2691 99.8538 48.8267C97.5116 48.634 88.6607 48.6278 85.0648 48.8165C80.7414 49.0431 69.6286 49.9129 69.7479 50.0151C69.7713 50.0351 73.389 50.0986 77.7874 50.1563C100.704 50.4568 107.304 51.1259 112.132 53.6381C113.586 54.3945 115.302 55.92 116.183 57.2392C116.524 57.7497 116.863 58.2393 116.938 58.3273C117.203 58.6393 116.437 56.5812 115.856 55.5891C114.852 53.8757 113.362 52.713 112.218 52.0366Z" fill="#6B98E1"/>
<path d="M91.0626 55.7861C89.1273 55.7079 83.1894 55.5916 77.8674 55.5275C72.5453 55.4635 65.06 55.4386 61.2334 55.472C51.7642 55.555 41.6931 55.7143 41.759 55.78C41.8545 55.8755 44.7445 55.9822 48.2781 56.0209C50.3031 56.043 51.388 56.1025 50.9171 56.1657C48.6874 56.4646 76.0325 56.3768 89.943 56.0403L94.5813 55.9281L91.0626 55.7861Z" fill="#6B98E1"/>
<path d="M17.1391 70.5526L17.6075 68.8025L4.60645 69.8026L17.1391 70.5526Z" fill="#6B98E1"/>
<path d="M16.0557 73.678L16.4198 72.3029L6.16895 73.2404L16.0557 73.678Z" fill="#6B98E1"/>
<defs>
<clipPath id="clip0_5587_66292">
<rect width="98.2304" height="20.3874" fill="white" transform="translate(15.874 64.6125)"/>
</clipPath>
</defs>
</svg>
